<?xml version="1.0" encoding="utf-8"?>
<!-- Generator: Adobe Illustrator 16.0.0, SVG Export Plug-In . SVG Version: 6.00 Build 0)  -->
<!DOCTYPE svg PUBLIC "-//W3C//DTD SVG 1.1//EN" "http://www.w3.org/Graphics/SVG/1.1/DTD/svg11.dtd">
<svg version="1.1" id="Capa_1" xmlns="http://www.w3.org/2000/svg" xmlns:xlink="http://www.w3.org/1999/xlink" x="0px" y="0px"
	 width="1379.142px" height="814.194px" viewBox="270.779 133.354 1379.142 814.194"
	 enable-background="new 270.779 133.354 1379.142 814.194" xml:space="preserve">
<g>
	<path fill="#FFFFFF" d="M1095.109,449.908c0,144.24-116.914,261.173-261.163,261.173c-144.271,0-261.188-116.935-261.188-261.199
		c0-144.26,116.918-261.202,261.188-261.202C978.195,188.681,1095.109,305.622,1095.109,449.908z"/>
	<g>
		<path fill="#1D70B7" d="M740.501,493.438c0,36.76,18.364,63.524,55.193,63.524c48.514,0,92.838-61.887,102.058-113.748
			l17.551-93.713c-8.406-3.315-22.58-6.687-41.834-6.687C799.886,342.815,740.501,412.271,740.501,493.438z"/>
		<path fill="#1D70B7" d="M833.947,162.971c-159.282,0-288.392,129.076-288.392,288.377c0,159.271,129.109,288.392,288.392,288.392
			c159.26,0,288.34-129.109,288.34-288.392C1122.287,292.046,993.207,162.971,833.947,162.971z M947.891,590.199
			c-28.648-11.114-59.131-35.212-58.038-68.829h-2.285c-26.594,44.862-61.596,66.915-107.162,66.915
			c-44.146,0-82.144-35.748-82.144-95.782c0-94.31,74.497-180.213,180.137-180.213c31.977,0,61.644,6.813,81.404,15.926
			l-25.83,137.624c-4.369,22.326-5.714,40.996-4.292,55.555c0.229,0.699,0.433,1.468,0.636,2.528
			c4.646,21.927,72.668,65.804,102.231,29.344c47.804-93.065,24.689-210.19-60.474-277.305
			c-96.727-76.124-237.338-59.404-313.489,37.3c-76.147,96.71-59.434,237.329,37.261,313.493
			c80.47,63.334,191.237,62.384,270.079,4.577c0,0,12.168-13.588,24.892-3.909c12.701,9.714-2.208,21.818-2.208,21.818
			c-89.026,69.499-217.375,72.345-309.981-0.579c-108.84-85.686-127.636-243.854-41.936-352.628
			c85.647-108.82,243.865-127.609,352.65-41.935c95.149,74.911,121.361,205.359,69.143,309.665
			C1036.029,610.466,977.84,603.014,947.891,590.199z"/>
	</g>
</g>
<g>
	<path fill="#FFFFFF" d="M649.087,550.275c0,100.494-81.535,181.991-182.017,181.991c-100.509,0-181.99-81.497-181.99-181.991
		c0-100.501,81.481-181.99,181.99-181.99C567.552,368.285,649.087,449.774,649.087,550.275z"/>
	<path fill="#E20613" d="M465.902,355.94c-107.772,0-195.124,87.35-195.124,195.096c0,107.792,87.351,195.144,195.124,195.144
		c107.771,0,195.123-87.352,195.123-195.144C661.025,443.29,573.674,355.94,465.902,355.94z M465.902,720.506
		c-93.396,0-169.393-76.022-169.393-169.47c0-93.401,75.997-169.398,169.393-169.398c78.028,0,143.916,53.018,163.525,124.969
		c1.396,5.245,1.244,7.583-1.449,11.861c-3.122,4.953-11.785,4.255-11.785,4.255h-6.375h-53.11
		c-12.777,37.199-25.554,74.455-38.331,111.658h-19.125c-5.511,0-10.415-3.543-12.091-8.77
		c-10.566-32.816-21.208-65.576-31.826-98.38c-1.498-4.681-5.792-7.823-10.693-7.823h-16.025v104.894
		c0,5.534-4.521,10.079-10.11,10.079h-14.604V519.408h-36.425c-7.163,0-13.03-5.83-13.03-13.019v-7.677h91.669h14.401
		c8.229,0,14.987,8.033,17.933,17.863c7.188,23.933,13.184,43.956,13.184,43.956c2.616,8.501,5.08,16.806,7.29,24.921
		c2.26,8.051,4.269,16.176,5.969,24.402c0,0,4.394-16.204,6.756-24.402c2.415-8.223,4.902-16.445,7.569-24.727
		c0,0,6.629-20.803,14.401-45.401c2.896-9.119,9.271-16.612,17.044-16.612h58.953c-21.438-58.623-77.775-100.597-143.713-100.597
		c-84.302,0-152.907,68.612-152.907,152.92c0,84.347,68.605,152.967,152.907,152.967c84.353,0,152.96-68.62,152.96-152.967v-11.811
		c0-5.365,8.888-2.185,11.989,1.492c4.799,5.685,4.493,9.455,4.493,10.318C635.345,644.482,559.348,720.506,465.902,720.506z"/>
</g>
<g>
	<g>
		<path fill="#F8B133" d="M1074.662,133.354c-70.686,0-127.989,57.334-127.989,128.048c0,70.732,57.303,128.073,127.989,128.073
			c70.739,0,128.068-57.341,128.068-128.073C1202.73,190.688,1145.401,133.354,1074.662,133.354z"/>
		<g>
			<path fill="#FFFFFF" d="M1154.979,256.08c1.678,1.962,4.091,2.959,6.525,2.934c1.932-0.026,3.812-0.725,5.359-2.07
				c3.609-3.061,3.963-8.414,0.938-11.951c-23.061-26.6-56.387-41.58-91.387-41.066c-34.979,0.515-67.792,16.473-90.043,43.727
				c-2.946,3.626-2.438,8.978,1.193,11.925c1.575,1.314,3.529,1.943,5.463,1.911c2.412-0.031,4.825-1.099,6.424-3.08
				c19.049-23.438,47.221-37.104,77.217-37.541C1106.645,220.419,1135.193,233.252,1154.979,256.08z"/>
			<path fill="#FFFFFF" d="M1019.29,282.832c2.413-0.019,4.724-1.073,6.429-3.092c12.724-15.583,31.471-24.714,51.433-25.012
				c20.042-0.286,39.043,8.267,52.225,23.469c1.728,1.981,4.091,2.966,6.526,2.921c1.932-0.019,3.837-0.68,5.412-2.07
				c3.53-3.035,3.908-8.376,0.838-11.918c-16.438-19.032-40.235-29.699-65.229-29.319c-24.966,0.362-48.436,11.723-64.312,31.229
				c-2.975,3.619-2.439,8.959,1.22,11.888C1015.404,282.242,1017.336,282.865,1019.29,282.832z"/>
			<path fill="#FFFFFF" d="M1115.734,365.249c48.16-19.068,78.054-70.021,68.758-122.986
				c-10.692-60.541-68.606-101.105-129.106-90.443c-60.579,10.655-101.118,68.586-90.475,129.127
				c9.091,51.549,52.397,88.563,102.437,91.884c0,0,8.509,0.4,7.213-6.547c-1.371-6.966-9.42-6.063-9.42-6.063
				c-43.184-4.21-80.115-36.672-87.985-81.421c-9.501-53.815,26.567-105.333,80.337-114.789
				c53.8-9.487,105.308,26.601,114.786,80.423c8.329,47.403-18.672,92.995-62.006,109.67c-2.537,0.959-10.412,5.265-23.799-16.796
				l-0.179,0.032c5.312-2.921,8.891-8.63,8.814-15.126c-0.125-9.328-7.85-16.833-17.193-16.694
				c-9.349,0.121-16.792,7.862-16.641,17.189c0.103,8.782,6.859,15.913,15.443,16.618c-0.125,0.279-0.179,0.527-0.179,0.762
				C1094.121,376.317,1112.129,366.691,1115.734,365.249z"/>
			<path fill="#FFFFFF" d="M1045.503,304.207c2.413-0.044,4.776-1.08,6.455-3.099c6.348-7.811,15.719-12.35,25.704-12.509
				c10.004-0.141,19.53,4.121,26.084,11.747c1.727,1.962,4.14,2.934,6.553,2.908c1.932-0.031,3.859-0.705,5.409-2.063
				c3.508-3.048,3.913-8.426,0.863-11.938c-9.853-11.386-24.104-17.793-39.167-17.564c-15.012,0.216-29.058,7.036-38.579,18.727
				c-2.947,3.594-2.392,8.94,1.192,11.887C1041.691,303.622,1043.575,304.232,1045.503,304.207z"/>
		</g>
	</g>
</g>
<g>
	<path fill="#FFFFFF" d="M1467.45,517.299c0,112.871-91.44,204.355-204.294,204.355c-112.902,0-204.393-91.484-204.393-204.355
		c0-112.857,91.489-204.354,204.393-204.354C1376.01,312.944,1467.45,404.441,1467.45,517.299z"/>
	<path fill="#39A935" d="M1263.107,296.111c-122.202,0-221.185,99.015-221.185,221.188c0,122.148,98.981,221.209,221.185,221.209
		c122.145,0,221.18-99.062,221.18-221.209C1484.287,395.126,1385.252,296.111,1263.107,296.111z M1419.188,630.125
		c-54.432,75.307-153.543,99.556-235.152,62.822c-6.17-2.794-39.725-13.52-16-78.888c0.659-0.818,2.262-1.173,4.216-1.173
		c-1.193-1.538-2.363-3.315-3.303-5.403c-1.064-2.542-1.522-5.289-1.242-8.28c0,0,1.447-23.217,3.984-34.215
		c13.208-57.258,46.609-117.875,90.301-164.624c4.696-5.062,11.2-7.537,19.479-7.387h19.406c6.143-0.03,7.924,2.781,7.848,8.06
		c0.255,18.345-4.192,35.527-13.282,51.581c-2.489,5.016-6.375,7.506-11.611,7.6c-6.223-0.26-13.154,1.906-17.144,7.011
		c-18.439,22.917-31.725,48.643-39.979,77.208c-2.542,9.553-1.322,16.734,3.53,21.604c4.497,4.234,4.849,12.243,3.682,15.626
		c-5.765,16.296-14.53,29.465-26.491,39.575c-6.301,6.943-14.072,7.731-23.267,2.322c-0.254-0.164-0.507-0.355-0.761-0.533
		c-11.255,43.136,3.604,47.719,7.896,49.754c72.85,33.584,161.872,12.202,210.566-55.184
		c55.296-76.511,37.996-183.762-38.455-239.058c-76.531-55.315-183.798-38.024-239.066,38.468
		c-45.996,63.671-41.759,148.525,5.004,207.123c0,0,10.821,8.931,3.838,18.986c-7.088,10.021-16.767-1.061-16.767-1.061
		c-56.133-66.002-62.404-164.286-9.424-237.571c62.205-86.063,182.806-105.468,268.886-43.314
		C1461.961,423.403,1481.442,544.059,1419.188,630.125z M1320.611,399.12c9.855,3.41,17.396,8.839,22.633,16.282
		c1.167,22.619-4.83,39.28-17.985,50.044c-8.382,1.131-16.636,0.019-24.663-3.303
		C1312.736,446.104,1319.392,425.047,1320.611,399.12z M1260.539,600.026c-5.534,21.935-16.104,36.131-31.8,42.539
		c-8.356-1.359-15.875-4.813-22.579-10.325c16.279-11.829,28.727-29.966,37.515-54.426
		C1252.107,583.962,1257.747,591.379,1260.539,600.026z"/>
</g>
<g>
	<path fill="#FFFFFF" d="M1638.872,603.824c0,72.765-58.902,131.687-131.649,131.687c-72.742,0-131.672-58.922-131.672-131.687
		c0-72.707,58.93-131.666,131.672-131.666C1579.97,472.158,1638.872,531.118,1638.872,603.824z"/>
	<g>
		<path fill="#E95A0C" d="M1574.992,606.422c0-6.509-2.132-11.577-6.196-15.17c-4.141-3.633-9.554-5.429-16.383-5.429h-9.226v41.4
			h9.226c6.829,0,12.241-1.771,16.383-5.34c4.063-3.569,6.196-8.644,6.196-15.24V606.422z"/>
		<path fill="#E95A0C" d="M1507.276,460.931c-78.793,0-142.623,63.855-142.623,142.659c0,78.772,63.829,142.621,142.623,142.621
			c78.766,0,142.645-63.849,142.645-142.621C1649.921,524.786,1586.042,460.931,1507.276,460.931z M1507.276,727.42
			c-68.301,0-123.876-55.581-123.876-123.83c0-0.679-0.205-3.454,3.303-7.595c2.311-2.667,8.788-4.979,8.788-1.066v8.661
			c0,61.633,50.141,111.778,111.785,111.778c61.595,0,111.758-50.151,111.758-111.778c0-61.64-50.163-111.816-111.758-111.816
			c-48.209,0-89.335,30.651-105.005,73.545h52.525v17.54h-52.679h-4.674c0,0-6.35,0.493-8.583-3.125
			c-2.008-3.144-2.159-4.809-1.117-8.682c14.374-52.564,62.534-91.369,119.531-91.369c68.3,0,123.876,55.606,123.876,123.907
			C1631.152,671.839,1575.576,727.42,1507.276,727.42z M1454.695,616.284v30.956h-22.525v-50.947h22.525h28.959V565.82h22.58v81.42
			h-22.58v-30.956H1454.695z M1520.662,647.24v-81.42h31.368c7.313,0,13.792,0.998,19.508,2.966
			c5.688,1.987,10.466,4.736,14.401,8.298c3.963,3.588,6.958,7.838,8.938,12.745c2.058,4.971,3.099,10.338,3.099,16.225v0.236
			c0,5.897-1.041,11.353-3.146,16.356c-2.084,4.989-5.133,9.313-9.02,12.935c-4.013,3.67-8.838,6.515-14.603,8.585
			c-5.818,2.053-12.372,3.074-19.638,3.074H1520.662z"/>
	</g>
</g>
<g>
	<path fill="#6F6F6E" d="M318.027,821.691h22.318v14.783c1.579-2.213,3.282-4.305,5.105-6.273c1.824-1.971,3.919-3.753,6.292-5.353
		c2.369-1.603,5.044-2.863,8.022-3.786c2.979-0.924,6.295-1.387,9.942-1.387c6.929,0,12.794,1.569,17.597,4.708
		c4.802,3.14,8.479,7.292,11.033,12.458c3.915-5.166,8.53-9.318,13.85-12.458c5.32-3.139,11.649-4.708,18.986-4.708
		c10.639,0,18.958,3.203,24.949,9.604c5.991,6.403,8.989,15.522,8.989,27.352v61.651h-22.319v-54.753
		c0-7.668-1.699-13.51-5.098-17.522c-3.402-4.016-8.195-6.024-14.387-6.024c-6.071,0-11.017,2.039-14.842,6.116
		c-3.825,4.075-5.737,10.005-5.737,17.791v54.394H380.41v-54.938c0-7.544-1.702-13.323-5.1-17.338
		c-3.401-4.016-8.196-6.024-14.387-6.024c-6.19,0-11.169,2.133-14.931,6.391c-3.765,4.258-5.646,10.161-5.646,17.702v54.208h-22.318
		L318.027,821.691L318.027,821.691z"/>
	<path fill="#6F6F6E" d="M519.529,920.295c-10.948,0-19.401-3.354-25.357-10.062c-5.961-6.707-8.938-15.735-8.938-27.076v-61.466
		h22.318v54.75c0,7.549,1.781,13.357,5.348,17.432c3.567,4.078,8.616,6.114,15.147,6.114c6.406,0,11.605-2.098,15.595-6.297
		c3.99-4.196,5.985-10.067,5.985-17.609v-54.39h22.32v96.591h-22.32v-15.156c-3.161,4.677-7.114,8.706-11.856,12.091
		C533.027,918.601,526.947,920.295,519.529,920.295z"/>
	<path fill="#6F6F6E" d="M594.267,821.691h22.317v15.15c1.582-2.337,3.313-4.519,5.2-6.549c1.883-2.029,4.073-3.846,6.565-5.444
		c2.492-1.603,5.231-2.863,8.209-3.786c2.979-0.924,6.355-1.387,10.126-1.387c10.945,0,19.396,3.354,25.357,10.063
		c5.957,6.706,8.937,15.731,8.937,27.07v61.472H658.66v-54.753c0-7.544-1.783-13.355-5.351-17.432
		c-3.566-4.078-8.614-6.117-15.144-6.117c-6.408,0-11.606,2.104-15.596,6.298c-3.99,4.199-5.987,10.071-5.987,17.61v54.394h-22.317
		L594.267,821.691L594.267,821.691z"/>
	<path fill="#6F6F6E" d="M742.081,920.295c-5.735,0-11.283-1.098-16.648-3.295c-5.367-2.192-10.124-5.425-14.268-9.693
		c-4.149-4.27-7.501-9.514-10.063-15.732c-2.562-6.221-3.843-13.355-3.843-21.404v-0.364c0-8.054,1.247-15.186,3.742-21.406
		c2.493-6.22,5.81-11.461,9.949-15.732c4.136-4.268,8.913-7.499,14.327-9.694c5.411-2.195,10.979-3.294,16.697-3.294
		c7.907,0,14.479,1.71,19.709,5.124c5.231,3.414,9.613,7.379,13.144,11.892v-51.955h22.32v133.546h-22.32l0.183-16.098
		c-3.538,5-7.957,9.269-13.262,12.804C756.442,918.524,749.884,920.295,742.081,920.295z M747.294,901.087
		c3.648,0,7.172-0.731,10.576-2.196c3.401-1.465,6.381-3.565,8.933-6.313c2.553-2.742,4.588-6.003,6.108-9.785
		c1.521-3.779,2.282-7.986,2.282-12.623v-0.364c0-4.635-0.762-8.875-2.282-12.717s-3.556-7.104-6.108-9.785
		c-2.552-2.683-5.531-4.76-8.933-6.222c-3.404-1.462-6.928-2.197-10.576-2.197c-3.768,0-7.322,0.706-10.667,2.106
		c-3.345,1.401-6.293,3.445-8.844,6.127c-2.553,2.685-4.561,5.946-6.018,9.788c-1.458,3.842-2.188,8.14-2.188,12.898v0.364
		c0,4.638,0.729,8.873,2.188,12.715c1.457,3.841,3.463,7.104,6.018,9.787c2.551,2.686,5.499,4.755,8.844,6.22
		C739.972,900.354,743.527,901.087,747.294,901.087z"/>
	<path fill="#6F6F6E" d="M865.2,920.475c-7.318,0-14.118-1.309-20.398-3.931c-6.283-2.622-11.708-6.188-16.28-10.702
		c-4.573-4.512-8.142-9.813-10.702-15.918c-2.563-6.097-3.844-12.559-3.844-19.392v-0.363c0-6.953,1.311-13.474,3.936-19.577
		c2.622-6.096,6.22-11.432,10.793-16.006c4.575-4.574,9.999-8.2,16.282-10.885c6.28-2.681,13.141-4.024,20.581-4.024
		c7.438,0,14.299,1.313,20.581,3.931c6.279,2.625,11.707,6.225,16.281,10.797c4.574,4.573,8.142,9.879,10.702,15.917
		c2.562,6.034,3.842,12.529,3.842,19.483v0.364c0,6.831-1.312,13.296-3.934,19.39c-2.623,6.103-6.22,11.438-10.792,16.008
		c-4.573,4.573-10.034,8.205-16.374,10.887C879.529,919.135,872.638,920.475,865.2,920.475z M865.564,901.268
		c4.482,0,8.513-0.82,12.089-2.469c3.575-1.646,6.637-3.871,9.181-6.678c2.544-2.805,4.486-6.063,5.817-9.785
		c1.332-3.722,2.001-7.652,2.001-11.804v-0.363c0-4.267-0.729-8.294-2.182-12.075c-1.455-3.778-3.484-7.068-6.09-9.879
		c-2.607-2.803-5.698-5.03-9.273-6.676c-3.575-1.648-7.544-2.471-11.904-2.471c-4.365,0-8.336,0.821-11.912,2.471
		c-3.576,1.646-6.638,3.843-9.182,6.585c-2.545,2.744-4.485,6.01-5.816,9.789c-1.332,3.782-1.998,7.744-1.998,11.892v0.364
		c0,4.271,0.727,8.263,2.181,11.982c1.451,3.722,3.482,7.016,6.091,9.878c2.604,2.865,5.694,5.122,9.271,6.77
		C857.412,900.446,861.323,901.268,865.564,901.268z"/>
	<path fill="#6F6F6E" d="M933.985,821.691h22.317v16.098c3.528-5.124,7.909-9.422,13.141-12.899
		c5.229-3.475,11.744-5.213,19.529-5.213c5.717,0,11.254,1.099,16.604,3.294c5.356,2.195,10.133,5.428,14.331,9.694
		c4.193,4.271,7.572,9.514,10.128,15.732c2.555,6.222,3.833,13.354,3.833,21.406v0.364c0,8.049-1.249,15.184-3.739,21.404
		c-2.498,6.22-5.844,11.464-10.039,15.732c-4.198,4.27-9.006,7.501-14.42,9.693c-5.413,2.197-10.981,3.295-16.698,3.295
		c-7.908,0-14.48-1.71-19.713-5.122c-5.23-3.415-9.549-7.379-12.957-11.894v44.271h-22.317V821.691L933.985,821.691z
		 M983.93,901.087c3.777,0,7.347-0.731,10.699-2.196c3.355-1.465,6.279-3.504,8.781-6.129c2.498-2.622,4.482-5.854,5.945-9.697
		c1.465-3.843,2.196-8.141,2.196-12.896v-0.364c0-4.635-0.731-8.875-2.196-12.717c-1.463-3.842-3.447-7.104-5.945-9.785
		c-2.502-2.683-5.426-4.76-8.781-6.222c-3.354-1.462-6.922-2.197-10.699-2.197c-3.783,0-7.381,0.735-10.796,2.197
		s-6.401,3.568-8.964,6.311c-2.561,2.744-4.604,6.011-6.128,9.789c-1.527,3.782-2.287,7.989-2.287,12.624v0.364
		c0,4.637,0.76,8.873,2.287,12.715c1.524,3.84,3.567,7.104,6.128,9.787c2.563,2.686,5.549,4.755,8.964,6.22
		C976.549,900.354,980.146,901.087,983.93,901.087z"/>
	<path fill="#6F6F6E" d="M1110.156,918.282v-11.892c-3.292,3.904-7.501,7.198-12.621,9.876c-5.124,2.684-11.343,4.027-18.662,4.027
		c-4.637,0-9.027-0.642-13.17-1.922c-4.147-1.279-7.775-3.169-10.885-5.671c-3.112-2.498-5.611-5.607-7.502-9.329
		c-1.893-3.72-2.836-8.019-2.836-12.899v-0.363c0-5.365,0.973-10.03,2.928-13.997c1.949-3.96,4.665-7.255,8.14-9.88
		c3.479-2.621,7.622-4.57,12.44-5.852c4.816-1.28,10.029-1.921,15.642-1.921c5.856,0,10.823,0.365,14.911,1.098
		c4.085,0.732,8.019,1.707,11.798,2.925v-1.827c0-6.706-2.044-11.828-6.128-15.367c-4.087-3.537-9.97-5.308-17.654-5.308
		c-5.488,0-10.367,0.551-14.635,1.649c-4.271,1.098-8.6,2.562-12.988,4.39l-6.037-17.744c5.365-2.439,10.854-4.393,16.463-5.856
		c5.609-1.46,12.379-2.192,20.309-2.192c14.391,0,25.063,3.565,32.015,10.702c6.952,7.132,10.427,17.166,10.427,30.095v57.26
		L1110.156,918.282L1110.156,918.282z M1110.706,877.854c-2.807-1.1-6.13-2.015-9.97-2.744c-3.842-0.734-7.897-1.099-12.167-1.099
		c-6.951,0-12.38,1.343-16.28,4.022c-3.906,2.685-5.855,6.344-5.855,10.979v0.365c0,4.637,1.801,8.171,5.396,10.61
		c3.598,2.438,8.02,3.656,13.265,3.656c3.657,0,7.043-0.484,10.152-1.46c3.109-0.978,5.823-2.347,8.14-4.117
		c2.318-1.769,4.116-3.899,5.398-6.401c1.279-2.498,1.921-5.275,1.921-8.325V877.854z"/>
	<path fill="#6F6F6E" d="M1197.781,920.475c-7.196,0-13.846-1.309-19.944-3.931c-6.103-2.622-11.396-6.188-15.884-10.702
		c-4.489-4.512-7.995-9.813-10.516-15.918c-2.521-6.097-3.781-12.559-3.781-19.392v-0.363c0-6.829,1.262-13.324,3.781-19.485
		c2.521-6.153,6.025-11.522,10.516-16.098c4.487-4.574,9.812-8.2,15.976-10.885c6.163-2.681,12.841-4.024,20.035-4.024
		c9.148,0,16.741,1.524,22.778,4.572c6.036,3.052,11.31,7.076,15.822,12.075l-13.72,14.817c-3.415-3.537-7.043-6.431-10.885-8.689
		c-3.843-2.255-8.57-3.384-14.18-3.384c-4.024,0-7.746,0.821-11.158,2.471c-3.415,1.646-6.342,3.843-8.781,6.585
		c-2.438,2.744-4.363,6.01-5.763,9.789c-1.402,3.782-2.104,7.744-2.104,11.892v0.364c0,4.271,0.701,8.296,2.104,12.073
		c1.398,3.782,3.386,7.074,5.945,9.879c2.562,2.807,5.608,5.03,9.147,6.678c3.534,1.647,7.437,2.469,11.708,2.469
		c5.242,0,9.848-1.127,13.811-3.384c3.964-2.257,7.715-5.149,11.252-8.688l13.354,13.169c-4.757,5.368-10.187,9.729-16.282,13.081
		C1214.916,918.799,1207.172,920.475,1197.781,920.475z"/>
	<path fill="#6F6F6E" d="M1253.213,821.691h22.319v96.591h-22.319V821.691z M1274.081,779.43l20.122,8.964l-22.316,21.037h-17.197
		L1274.081,779.43z"/>
	<path fill="#6F6F6E" d="M1303.705,840.714h-12.258v-18.476h12.258v-6.951c0-10.73,2.62-18.72,7.867-23.966
		c5.121-5.124,12.376-7.686,21.77-7.686c3.901,0,7.254,0.245,10.063,0.73c2.803,0.489,5.423,1.102,7.863,1.83v18.659
		c-2.181-0.729-4.271-1.308-6.268-1.736c-1.997-0.425-4.207-0.642-6.629-0.642c-8.479,0-12.715,4.88-12.715,14.637v5.304h25.61
		v18.295h-25.245v77.568h-22.317L1303.705,840.714L1303.705,840.714z M1367.734,785.832h23.964v21.039h-23.964V785.832z
		 M1368.648,821.691h22.318v96.591h-22.318V821.691z"/>
	<path fill="#6F6F6E" d="M1459.201,920.475c-7.199,0-13.846-1.309-19.944-3.931c-6.104-2.622-11.398-6.188-15.887-10.702
		c-4.487-4.512-7.993-9.813-10.513-15.918c-2.521-6.097-3.784-12.559-3.784-19.392v-0.363c0-6.829,1.263-13.324,3.784-19.485
		c2.52-6.153,6.024-11.522,10.513-16.098s9.813-8.2,15.976-10.885c6.164-2.681,12.843-4.024,20.037-4.024
		c9.149,0,16.739,1.524,22.778,4.572c6.036,3.052,11.31,7.076,15.824,12.075l-13.722,14.817c-3.415-3.537-7.043-6.431-10.885-8.689
		c-3.842-2.255-8.568-3.384-14.179-3.384c-4.024,0-7.746,0.821-11.158,2.471c-3.417,1.646-6.345,3.843-8.781,6.585
		c-2.439,2.744-4.362,6.01-5.764,9.789c-1.404,3.782-2.104,7.744-2.104,11.892v0.364c0,4.271,0.699,8.296,2.104,12.073
		c1.4,3.782,3.384,7.074,5.945,9.879c2.561,2.807,5.608,5.03,9.147,6.678c3.535,1.647,7.437,2.469,11.709,2.469
		c5.239,0,9.845-1.127,13.811-3.384c3.962-2.257,7.715-5.149,11.252-8.688l13.354,13.169c-4.757,5.368-10.187,9.729-16.283,13.081
		S1468.592,920.475,1459.201,920.475z"/>
	<path fill="#6F6F6E" d="M1559.271,920.475c-7.317,0-14.119-1.309-20.398-3.931c-6.284-2.622-11.709-6.188-16.283-10.702
		c-4.57-4.512-8.14-9.813-10.701-15.918c-2.561-6.097-3.843-12.559-3.843-19.392v-0.363c0-6.953,1.311-13.474,3.937-19.577
		c2.621-6.096,6.22-11.432,10.791-16.006c4.576-4.574,9.999-8.2,16.282-10.885c6.279-2.681,13.141-4.024,20.58-4.024
		s14.3,1.313,20.583,3.931c6.277,2.625,11.709,6.225,16.28,10.797c4.574,4.573,8.141,9.879,10.702,15.917
		c2.561,6.034,3.842,12.529,3.842,19.483v0.364c0,6.831-1.312,13.296-3.936,19.39c-2.621,6.103-6.22,11.438-10.791,16.008
		c-4.571,4.573-10.034,8.205-16.373,10.887C1573.602,919.135,1566.708,920.475,1559.271,920.475z M1559.636,901.268
		c4.483,0,8.516-0.82,12.089-2.469c3.575-1.646,6.639-3.871,9.183-6.678c2.545-2.805,4.485-6.063,5.815-9.785
		c1.332-3.722,2.002-7.652,2.002-11.804v-0.363c0-4.267-0.729-8.294-2.182-12.075c-1.453-3.778-3.483-7.068-6.09-9.879
		c-2.607-2.803-5.696-5.03-9.275-6.676c-3.574-1.648-7.542-2.471-11.904-2.471s-8.334,0.821-11.907,2.471
		c-3.58,1.646-6.64,3.843-9.186,6.585c-2.542,2.744-4.484,6.01-5.813,9.789c-1.333,3.782-1.999,7.744-1.999,11.892v0.364
		c0,4.271,0.727,8.263,2.18,11.982c1.453,3.722,3.483,7.016,6.09,9.878c2.606,2.865,5.696,5.122,9.271,6.77
		C1551.482,900.446,1555.396,901.268,1559.636,901.268z"/>
</g>
</svg>
